<?xml version="1.0" encoding="UTF-8"?>
<svg xmlns="http://www.w3.org/2000/svg" width="1400" height="900" viewBox="0 0 1400 900">
  <defs>
    <linearGradient id="g1" x1="0" x2="1">
      <stop offset="0%" stop-color="#FF8AB8" />
      <stop offset="100%" stop-color="#FF4D9E" />
    </linearGradient>
    <filter id="shadow" x="-20%" y="-20%" width="140%" height="140%">
      <feDropShadow dx="0" dy="6" stdDeviation="12" flood-color="#000" flood-opacity="0.35" />
    </filter>
  </defs>
  <!-- background textured-like -->
  <rect width="100%" height="100%" fill="#3b3b3b" />
  <g opacity="0.08">
    <rect width="100%" height="100%" fill="url(#g1)" />
  </g>

  <!-- stylized ribbon -->
  <g transform="translate(200,80) scale(1.6)">
    <path d="M180 60 C120 20, 60 20, 20 80 C-10 120, 20 170, 80 160 C120 150, 140 120, 180 100 C230 70, 220 40, 180 60 Z" fill="url(#g1)" filter="url(#shadow)" />
    <path d="M80 160 C70 210, 90 280, 150 300 C210 320, 260 290, 260 240 C260 200, 210 180, 180 150 C150 120, 110 110, 80 160 Z" fill="url(#g1)" filter="url(#shadow)" />
    <path d="M150 300 C120 350, 80 400, 30 420 C-20 440, -40 420, -10 390 C30 360, 70 330, 150 300 Z" fill="#ff9fc4" opacity="0.95" />
  </g>

  <!-- hand silhouette suggestion (simple) -->
  <g transform="translate(600,420) scale(0.9)" opacity="0.06">
    <ellipse cx="0" cy="0" rx="380" ry="220" fill="#000" />
  </g>

  <!-- label -->
  <text x="60" y="860" font-family="Segoe UI, Arial, sans-serif" font-size="22" fill="#ffffff" opacity="0.9">Octobre Rose — sensibilisation</text>
</svg>